<svg width="100" height="100" viewBox="0 0 100 100" fill="none" xmlns="http://www.w3.org/2000/svg">
<circle cx="50" cy="50" r="50" fill="#5E7CE2"/>
<g clip-path="url(#clip0_233_1305)">
<path d="M50.8 54.4L60.8 67.734C60.9114 67.8826 60.9793 68.0592 60.996 68.2442C61.0126 68.4292 60.9775 68.6151 60.8944 68.7812C60.8114 68.9473 60.6837 69.087 60.5257 69.1847C60.3678 69.2823 60.1857 69.334 60 69.334H40C39.8143 69.334 39.6322 69.2823 39.4743 69.1847C39.3163 69.087 39.1886 68.9473 39.1056 68.7812C39.0225 68.6151 38.9874 68.4292 39.004 68.2442C39.0207 68.0592 39.0886 67.8826 39.2 67.734L49.2 54.4C49.2931 54.2758 49.4139 54.175 49.5528 54.1056C49.6916 54.0361 49.8448 54 50 54C50.1552 54 50.3084 54.0361 50.4472 54.1056C50.5861 54.175 50.7069 54.2758 50.8 54.4Z" fill="white"/>
<path d="M50.8 45.6L60.8 32.266C60.9114 32.1174 60.9793 31.9408 60.996 31.7558C61.0126 31.5708 60.9775 31.3849 60.8944 31.2188C60.8114 31.0527 60.6837 30.913 60.5257 30.8153C60.3678 30.7177 60.1857 30.666 60 30.666H40C39.8143 30.666 39.6322 30.7177 39.4743 30.8153C39.3163 30.913 39.1886 31.0527 39.1056 31.2188C39.0225 31.3849 38.9874 31.5708 39.004 31.7558C39.0207 31.9408 39.0886 32.1174 39.2 32.266L49.2 45.6C49.2931 45.7242 49.4139 45.825 49.5528 45.8944C49.6916 45.9639 49.8448 46 50 46C50.1552 46 50.3084 45.9639 50.4472 45.8944C50.5861 45.825 50.7069 45.7242 50.8 45.6Z" fill="white"/>
<path d="M30 48H70V52H30V48Z" fill="white"/>
</g>
<defs>
<clipPath id="clip0_233_1305">
<rect width="48" height="48" fill="white" transform="translate(26 26)"/>
</clipPath>
</defs>
</svg>
