<svg width="100" height="100" viewBox="0 0 100 100" fill="none" xmlns="http://www.w3.org/2000/svg">
<circle cx="50" cy="50" r="50" fill="#5E7CE2"/>
<g clip-path="url(#clip0_233_1313)">
<path d="M58 58C61.314 58 64 60.686 64 64C64 67.314 61.314 70 58 70C54.686 70 52 67.314 52 64C52 60.686 54.686 58 58 58ZM38 50C42.42 50 46 53.58 46 58C46 62.42 42.42 66 38 66C33.58 66 30 62.42 30 58C30 53.58 33.58 50 38 50ZM55 30C61.076 30 66 34.924 66 41C66 47.076 61.076 52 55 52C48.924 52 44 47.076 44 41C44 34.924 48.924 30 55 30Z" fill="white"/>
</g>
<defs>
<clipPath id="clip0_233_1313">
<rect width="48" height="48" fill="white" transform="translate(26 26)"/>
</clipPath>
</defs>
</svg>
