<svg width="62" height="39" viewBox="0 0 62 39" fill="none" xmlns="http://www.w3.org/2000/svg">
<path opacity="0.07" d="M56.2249 0H4.81927C2.08835 0 0 2.08835 0 4.81927V33.7349C0 36.4658 2.249 38.5542 4.81927 38.5542H56.2249C58.9558 38.5542 61.0442 36.4658 61.0442 33.7349V4.81927C61.0442 2.08835 58.7952 0 56.2249 0Z" fill="black"/>
<path d="M56.2249 1.60645C57.992 1.60645 59.4377 3.05223 59.4377 4.8193V33.7349C59.4377 35.502 57.992 36.9478 56.2249 36.9478H4.8193C3.05223 36.9478 1.60645 35.502 1.60645 33.7349V4.8193C1.60645 3.05223 3.05223 1.60645 4.8193 1.60645H56.2249Z" fill="#006FCF"/>
<path d="M14.4113 16.4949L15.6547 19.5086H13.1776L14.4113 16.4949ZM40.2346 16.6202H35.4523V17.9487H40.1575V19.9391H35.4619V21.4202H40.2442V22.6074L43.5808 19.001L40.2442 15.2419L40.2346 16.6202ZM17.6434 12.8612H24.0611L25.486 15.9696L26.8065 12.8516H43.4651L45.1968 14.7632L46.988 12.8516H54.6394L48.9864 19.0395L54.5816 25.1889H46.8161L45.0844 23.2773L43.2772 25.1889H16.1125L15.319 23.2773H13.5037L12.7085 25.1889H6.42578L11.7045 12.8516H17.2145L17.6434 12.8612ZM31.5599 14.5929H27.9631L25.5535 20.2732L22.943 14.5929H19.3736V22.3198L16.0643 14.5929H12.8627L9.03622 23.4475H11.5342L12.3278 21.5359H16.4981L17.2916 23.4475H21.6611V17.1263L24.474 23.4572H26.3856L29.1808 17.1455V23.4588H31.523L31.5615 14.5913L31.5599 14.5929ZM46.5639 19.0395L50.6298 14.5929H47.7029L45.131 17.3656L42.6442 14.5929H33.176V23.4572H42.5093L45.1021 20.6652L47.5888 23.4572H50.6009L46.5655 19.0395H46.5639Z" fill="white"/>
</svg>
