<svg width="62" height="39" viewBox="0 0 62 39" fill="none" xmlns="http://www.w3.org/2000/svg">
<g clip-path="url(#clip0_233_1436)">
<path opacity="0.07" d="M56.2844 0H4.87885C2.14792 0 0.0595703 2.08835 0.0595703 4.81927V33.7349C0.0595703 36.4658 2.30857 38.5542 4.87885 38.5542H56.2844C59.0154 38.5542 61.1037 36.4658 61.1037 33.7349V4.81927C61.1037 2.08835 58.8547 0 56.2844 0Z" fill="black"/>
<path d="M56.2854 1.60645C58.0525 1.60645 59.4983 3.05223 59.4983 4.8193V33.7349C59.4983 35.502 58.0525 36.9478 56.2854 36.9478H4.87984C3.11277 36.9478 1.66699 35.502 1.66699 33.7349V4.8193C1.66699 3.05223 3.11277 1.60645 4.87984 1.60645H56.2854Z" fill="white"/>
<path d="M45.5215 16.2251H45.0396C44.397 17.8315 43.9151 18.6347 43.4331 21.0443H46.4854C46.0034 18.6347 46.0034 17.5102 45.5215 16.2251ZM50.1801 25.703H47.4492C47.2886 25.703 47.2886 25.703 47.1279 25.5423L46.8066 24.0965L46.646 23.7753H42.7906C42.6299 23.7753 42.4693 23.7753 42.4693 24.0965L41.9874 25.5423C41.9874 25.703 41.8267 25.703 41.8267 25.703H38.4532L38.7745 24.8997L43.4331 13.9761C43.4331 13.1728 43.9151 12.8516 44.7183 12.8516H47.1279C47.2886 12.8516 47.4492 12.8516 47.4492 13.1728L49.6982 23.6146C49.8588 24.2572 50.0195 24.7391 50.0195 25.3817C50.1801 25.5423 50.1801 25.5423 50.1801 25.703ZM28.654 25.221L29.2966 22.3295C29.4573 22.3295 29.6179 22.4901 29.6179 22.4901C30.7424 22.972 31.8669 23.2933 32.9914 23.1327C33.3127 23.1327 33.7946 22.972 34.1159 22.8114C34.9191 22.4901 34.9191 21.6869 34.2765 21.0443C33.9552 20.723 33.4733 20.5624 32.9914 20.2411C32.3488 19.9198 31.7062 19.5985 31.2243 19.1166C29.2966 17.5102 29.9392 15.2612 31.0637 14.1367C32.0275 13.4941 32.5095 12.8516 33.7946 12.8516C35.7223 12.8516 37.8107 12.8516 38.7745 13.1728H38.9352C38.7745 14.1367 38.6139 14.9399 38.2926 15.9038C37.4894 15.5825 36.6862 15.2612 35.8829 15.2612C35.401 15.2612 34.9191 15.2612 34.4372 15.4218C34.1159 15.4218 33.9552 15.5825 33.7946 15.7431C33.4733 16.0644 33.4733 16.5463 33.7946 16.8676L34.5978 17.5102C35.2404 17.8315 35.8829 18.1528 36.3649 18.474C37.1681 18.956 37.9713 19.7592 38.1319 20.723C38.4532 22.1688 37.9713 23.454 36.6862 24.4178C35.8829 25.0604 35.5617 25.3817 34.4372 25.3817C32.1882 25.3817 30.4211 25.5423 28.9753 25.0604C28.8147 25.3817 28.8147 25.3817 28.654 25.221ZM23.0316 25.703C23.1922 24.5785 23.1922 24.5785 23.3528 24.0965C24.156 20.5624 24.9593 16.8676 25.6018 13.3335C25.7625 13.0122 25.7625 12.8516 26.0838 12.8516H28.9753C28.654 14.7793 28.3328 16.2251 27.8508 17.9921C27.3689 20.4018 26.887 22.8114 26.2444 25.221C26.2444 25.5423 26.0838 25.5423 25.7625 25.5423L23.0316 25.703ZM8.0918 13.1728C8.0918 13.0122 8.41308 12.8516 8.57372 12.8516H14.0356C14.8388 12.8516 15.4814 13.3335 15.642 14.1367L17.0878 21.205C17.0878 21.3656 17.0878 21.3656 17.2484 21.5263C17.2484 21.3656 17.4091 21.3656 17.4091 21.3656L20.7826 13.1728C20.6219 13.0122 20.7826 12.8516 20.9432 12.8516H24.3167C24.3167 13.0122 24.3167 13.0122 24.156 13.1728L19.1761 24.8997C19.0155 25.221 19.0155 25.3817 18.8548 25.5423C18.6942 25.703 18.3729 25.5423 18.0516 25.5423H15.642C15.4814 25.5423 15.3207 25.5423 15.3207 25.221L12.7504 15.2612C12.4291 14.9399 11.9472 14.458 11.3046 14.2973C10.3408 13.8154 8.57372 13.4941 8.25244 13.4941L8.0918 13.1728Z" fill="#142688"/>
</g>
<defs>
<clipPath id="clip0_233_1436">
<rect width="61.0442" height="38.5542" fill="white" transform="translate(0.0595703)"/>
</clipPath>
</defs>
</svg>
