<svg width="62" height="39" viewBox="0 0 62 39" fill="none" xmlns="http://www.w3.org/2000/svg">
<g clip-path="url(#clip0_233_1369)">
<path opacity="0.07" d="M57.1809 0H5.77533C3.04441 0 0.956055 2.08835 0.956055 4.81927V33.7349C0.956055 36.4658 3.20505 38.5542 5.77533 38.5542H57.1809C59.9119 38.5542 62.0002 36.4658 62.0002 33.7349V4.81927C62.0002 2.08835 59.7512 0 57.1809 0Z" fill="black"/>
<path d="M55.8272 1.60645H7.12715C4.53996 1.60645 2.56152 3.52077 2.56152 6.02411V32.5301C2.56152 35.0335 4.69215 36.9478 7.12715 36.9478H55.8272C58.4144 36.9478 60.3928 35.0335 60.3928 32.5301V6.02411C60.3928 3.52077 58.2622 1.60645 55.8272 1.60645Z" fill="#B2FCE4"/>
<path d="M45.3858 11.2902L41.0355 8.71227L36.6853 6.13436C33.7852 4.52317 30.0794 6.61772 30.0794 10.0012V10.6457C30.0794 10.9679 30.2405 11.2902 30.5628 11.4513L32.6573 12.5791C33.3018 12.9014 33.9463 12.418 33.9463 11.7735V10.4846C33.9463 9.84011 34.5908 9.35675 35.2352 9.67899L39.2632 11.9347L43.1301 14.3515C43.7746 14.6737 43.7746 15.4793 43.1301 15.8015L39.1021 18.0572L35.0741 20.6351C34.4296 20.9574 33.7852 20.474 33.7852 19.8295V19.185C33.7852 15.8015 30.0794 13.707 27.1793 15.3182L22.829 17.8961L18.4788 20.474C15.5787 22.0852 15.5787 26.4354 18.4788 28.0466L22.829 30.6245L27.1793 33.2024C30.0794 34.8136 33.7852 32.7191 33.7852 29.3356V28.6911C33.7852 28.3688 33.6241 28.0466 33.3018 27.8855L31.2073 26.7577C30.5628 26.4354 29.9183 26.9188 29.9183 27.5632V28.8522C29.9183 29.4967 29.2738 29.98 28.6293 29.6578L24.6014 27.4021L20.5734 24.9853C19.9289 24.6631 19.9289 23.8575 20.5734 23.5353L24.6014 21.2796L28.6293 19.0239C29.2738 18.7017 29.9183 19.185 29.9183 19.8295V20.474C29.9183 23.8575 33.6241 25.9521 36.5242 24.3409L40.8744 21.7629L45.2246 19.185C48.2859 17.2516 48.2859 13.0625 45.3858 11.2902Z" fill="black"/>
</g>
<defs>
<clipPath id="clip0_233_1369">
<rect width="61.0442" height="38.5542" fill="white" transform="translate(0.956055)"/>
</clipPath>
</defs>
</svg>
