<svg width="62" height="39" viewBox="0 0 62 39" fill="none" xmlns="http://www.w3.org/2000/svg">
<g clip-path="url(#clip0_233_1378)">
<path opacity="0.07" d="M56.1364 0H6.69983C6.49389 0 6.2876 0 6.08203 0.00109152C5.90848 0.00254687 5.73529 0.00436607 5.56174 0.00909597C5.18371 0.0192835 4.80241 0.0418415 4.42911 0.108788C4.05473 0.172929 3.69201 0.292489 3.35287 0.463531C2.6711 0.810298 2.11694 1.36446 1.77017 2.04623C1.59882 2.3855 1.47925 2.74851 1.41543 3.12319C1.34775 3.49686 1.32556 3.8778 1.31537 4.25546C1.31094 4.42886 1.30827 4.6023 1.30737 4.77575C1.30664 4.98096 1.30664 5.18689 1.30664 5.39319V33.1606C1.30664 33.3669 1.30664 33.5725 1.30737 33.7788C1.30846 33.952 1.31064 34.1255 1.31537 34.2991C1.32556 34.676 1.34812 35.0573 1.41543 35.4306C1.47912 35.8053 1.59857 36.1683 1.76981 36.5076C1.94197 36.8465 2.16669 37.1559 2.43563 37.4245C2.70411 37.6935 3.01359 37.9183 3.35251 38.0903C3.69706 38.266 4.04999 38.3777 4.42947 38.4458C4.80241 38.5124 5.18371 38.5349 5.56174 38.5451C5.73529 38.5491 5.90848 38.5513 6.08203 38.5524C6.2876 38.5538 6.49389 38.5538 6.69983 38.5538H56.1364C56.342 38.5538 56.5483 38.5538 56.7539 38.5524C56.9271 38.5517 57.1003 38.5491 57.2745 38.5451C57.6518 38.5349 58.0331 38.5124 58.4072 38.4458C58.7816 38.3816 59.1444 38.2618 59.4834 38.0903C60.1648 37.7431 60.7189 37.189 61.0661 36.5076C61.2418 36.163 61.3532 35.8101 61.4205 35.4306C61.4882 35.0573 61.51 34.676 61.5202 34.2991C61.5249 34.1255 61.5275 33.952 61.5282 33.7788C61.5296 33.5725 61.5296 33.3669 61.5296 33.1606V5.39355C61.5296 5.18725 61.5296 4.98132 61.5282 4.77539C61.5275 4.60205 61.5248 4.42873 61.5202 4.25546C61.51 3.8778 61.4882 3.49686 61.4205 3.12319C61.3571 2.74845 61.2376 2.38538 61.0661 2.04623C60.7192 1.36458 60.1651 0.810462 59.4834 0.463531C59.1442 0.292665 58.7815 0.17323 58.4072 0.109152C58.0331 0.0418415 57.6518 0.0196473 57.2745 0.00945981C57.101 0.00505274 56.9275 0.00238445 56.7539 0.00145536C56.5483 0 56.342 0 56.1364 0Z" fill="black"/>
<path d="M56.1356 1.28467L56.7439 1.28576C56.9083 1.28685 57.0732 1.28867 57.2387 1.29304C57.5272 1.30104 57.8642 1.31669 58.1785 1.37308C58.4514 1.4222 58.6806 1.49679 58.9004 1.60885C59.3402 1.83245 59.6974 2.19012 59.9206 2.63014C60.0319 2.84845 60.1061 3.07621 60.1552 3.35164C60.2113 3.66236 60.2269 4.00036 60.2346 4.29034C60.2393 4.45407 60.2415 4.6178 60.2418 4.78516C60.2437 4.98782 60.2437 5.19012 60.2437 5.39314V33.1606C60.2437 33.3636 60.2437 33.5659 60.2422 33.7726C60.2415 33.9363 60.2393 34.1 60.2349 34.2638C60.2269 34.5534 60.2113 34.8914 60.1545 35.2057C60.1133 35.4558 60.0341 35.6981 59.9198 35.9243C59.6962 36.3645 59.3384 36.7222 58.8982 36.9456C58.6799 37.057 58.4514 37.1315 58.1811 37.1803C57.8605 37.2374 57.509 37.2531 57.2445 37.2603C57.0783 37.264 56.9127 37.2665 56.7428 37.2673C56.5409 37.2687 56.3378 37.2687 56.1356 37.2687H6.69092C6.49081 37.2687 6.2907 37.2687 6.08695 37.2673C5.92321 37.2665 5.75947 37.2644 5.59577 37.2607C5.32507 37.2534 4.9736 37.2374 4.65561 37.1807C4.40419 37.1388 4.16056 37.059 3.93302 36.9442C3.71476 36.8333 3.51555 36.6884 3.34288 36.5148C3.16965 36.3419 3.02499 36.1426 2.91427 35.9243C2.79994 35.6968 2.72069 35.4533 2.67923 35.2021C2.62247 34.8881 2.60647 34.5516 2.59919 34.2641C2.59508 34.0998 2.59265 33.9355 2.59191 33.7711L2.59082 33.2883V5.26579L2.59155 4.78371C2.5923 4.61911 2.59472 4.45453 2.59882 4.28998C2.60683 4.00182 2.62247 3.66527 2.6796 3.34873C2.72114 3.09799 2.80038 2.85499 2.91464 2.62796C3.02524 2.41039 3.16932 2.21173 3.34397 2.03745C3.51706 1.86409 3.71648 1.71919 3.93484 1.60812C4.16183 1.49409 4.40468 1.41485 4.65524 1.37308C4.96996 1.31669 5.30724 1.30104 5.59613 1.29304C5.76059 1.28867 5.9254 1.28685 6.08877 1.28576L6.69893 1.28467H56.1356Z" fill="white"/>
<path d="M17.1375 13.0148C17.6483 12.3763 17.9947 11.5187 17.9034 10.6426C17.156 10.6797 16.2443 11.1356 15.716 11.7748C15.2419 12.3221 14.8224 13.2153 14.9315 14.0547C15.7705 14.1274 16.6088 13.6355 17.1375 13.0148Z" fill="black"/>
<path d="M17.8933 14.2188C16.6744 14.146 15.6389 14.91 15.0572 14.91C14.475 14.91 13.584 14.2551 12.6202 14.273C11.366 14.2912 10.2025 15.0006 9.56574 16.1285C8.25665 18.3843 9.22009 21.7317 10.4935 23.5691C11.1117 24.4787 11.8568 25.4792 12.8385 25.4432C13.7663 25.4068 14.1297 24.8429 15.2569 24.8429C16.3837 24.8429 16.7112 25.4432 17.6932 25.425C18.7112 25.4068 19.3479 24.5154 19.9661 23.6058C20.6756 22.5689 20.9655 21.5683 20.9837 21.5137C20.9655 21.4955 19.0205 20.7493 19.0023 18.5117C18.9841 16.6379 20.5297 15.7465 20.6024 15.6916C19.7296 14.4007 18.3659 14.2551 17.8929 14.2188" fill="black"/>
<path d="M30.0392 11.6831C32.6872 11.6831 34.5315 13.5085 34.5315 16.166C34.5315 18.8329 32.6493 20.6677 29.9729 20.6677H27.0411V25.3307H24.9229V11.6831H30.0392ZM27.0411 18.8897H29.4716C31.3162 18.8897 32.3655 17.8967 32.3655 16.1754C32.3655 14.4545 31.3159 13.4706 29.481 13.4706H27.0411V18.8897Z" fill="black"/>
<path d="M35.0586 22.5028C35.0586 20.7531 36.3921 19.7507 38.8509 19.5993L41.4894 19.4385V18.6817C41.4894 17.5757 40.7614 16.9702 39.4658 16.9702C38.3968 16.9702 37.6211 17.5185 37.461 18.3601H35.5501C35.6073 16.5918 37.2715 15.3057 39.5225 15.3057C41.9435 15.3057 43.5229 16.5729 43.5229 18.5402V25.3305H41.5655V23.6943H41.5182C40.9601 24.7629 39.7303 25.4342 38.3968 25.4342C36.4299 25.4342 35.0586 24.2619 35.0586 22.5028ZM41.4894 21.6234V20.8571L39.1347 21.0085C37.8103 21.0936 37.1205 21.5852 37.1205 22.4456C37.1205 23.2781 37.8391 23.8173 38.9644 23.8173C40.4016 23.8173 41.4894 22.8997 41.4894 21.6234Z" fill="black"/>
<path d="M45.3237 28.981V27.3452C45.4561 27.3637 45.7774 27.3826 45.9476 27.3826C46.8838 27.3826 47.4136 26.9861 47.7352 25.964L47.9244 25.359L44.3398 15.4287H46.5527L49.0497 23.4863H49.097L51.5937 15.4287H53.7502L50.0332 25.86C49.1818 28.2529 48.2078 29.0381 46.1463 29.0381C45.9855 29.0381 45.4652 29.0192 45.3237 28.981Z" fill="black"/>
</g>
<defs>
<clipPath id="clip0_233_1378">
<rect width="61.0442" height="38.5542" fill="white" transform="translate(0.895508)"/>
</clipPath>
</defs>
</svg>
