<svg width="62" height="39" viewBox="0 0 62 39" fill="none" xmlns="http://www.w3.org/2000/svg">
<g clip-path="url(#clip0_233_1389)">
<path opacity="0.07" d="M57.0159 0H5.61029C2.87937 0 0.791016 2.08835 0.791016 4.81927V33.7349C0.791016 36.4658 3.04001 38.5542 5.61029 38.5542H57.0159C59.7468 38.5542 61.8352 36.4658 61.8352 33.7349V4.81927C61.8352 2.08835 59.5862 0 57.0159 0Z" fill="black"/>
<path d="M57.0159 1.60645C58.783 1.60645 60.2288 3.05223 60.2288 4.8193V33.7349C60.2288 35.502 58.783 36.9478 57.0159 36.9478H5.61031C3.84324 36.9478 2.39746 35.502 2.39746 33.7349V4.8193C2.39746 3.05223 3.84324 1.60645 5.61031 1.60645H57.0159Z" fill="white"/>
<path d="M20.0693 19.2772V25.221C20.0693 25.7029 19.748 25.7029 19.2661 25.5423C16.2139 24.2571 14.4468 20.2411 15.5713 16.8676C16.2139 15.1005 17.499 13.6547 19.2661 13.0121C19.9087 12.6909 20.0693 12.8515 20.0693 13.3334V19.2772ZM23.2822 19.2772V13.3334C23.2822 12.8515 23.2822 12.8515 23.7641 13.0121C27.1376 14.2973 28.9047 18.3133 27.6195 21.6868C26.977 23.4539 25.6918 24.8997 23.9247 25.5423C23.2822 25.8635 23.2822 25.7029 23.2822 25.221V19.2772ZM34.8484 8.03223H21.6757C27.7802 8.03223 32.5994 13.0121 32.5994 19.2772C32.5994 25.5423 27.7802 30.5222 21.6757 30.5222H34.8484C40.9529 30.5222 45.7721 25.5423 45.7721 19.2772C45.7721 13.0121 40.9529 8.03223 34.8484 8.03223Z" fill="#3086C8"/>
</g>
<defs>
<clipPath id="clip0_233_1389">
<rect width="61.0442" height="38.5542" fill="white" transform="translate(0.791016)"/>
</clipPath>
</defs>
</svg>
