<svg width="62" height="39" viewBox="0 0 62 39" fill="none" xmlns="http://www.w3.org/2000/svg">
<g clip-path="url(#clip0_233_1393)">
<path opacity="0.07" d="M56.9114 0H5.5058C2.77488 0 0.686523 2.08835 0.686523 4.81927V33.7349C0.686523 36.4658 2.93552 38.5542 5.5058 38.5542H56.9114C59.6423 38.5542 61.7307 36.4658 61.7307 33.7349V4.81927C61.7307 2.08835 59.4817 0 56.9114 0Z" fill="black"/>
<path d="M56.9114 1.60645C58.6785 1.60645 60.1243 3.05223 60.1243 4.8193V33.7349C60.1243 35.502 58.6785 36.9478 56.9114 36.9478H5.50582C3.73875 36.9478 2.29297 35.502 2.29297 33.7349V4.8193C2.29297 3.05223 3.73875 1.60645 5.50582 1.60645H56.9114Z" fill="white"/>
<path d="M6.4215 11.5023H3.89941V20.3377H6.4215C7.75483 20.3377 8.71869 20.0164 9.57009 19.3256C10.5821 18.4903 11.1765 17.2373 11.1765 15.9361C11.1605 13.3176 9.21668 11.5023 6.4215 11.5023ZM8.4456 18.1529C7.89941 18.6349 7.20865 18.8598 6.08415 18.8598H5.61829V13.0124H6.08415C7.19259 13.0124 7.86728 13.2052 8.4456 13.7192C9.03997 14.2493 9.39339 15.0686 9.39339 15.92C9.39339 16.7714 9.03997 17.6228 8.4456 18.1529ZM11.9637 11.5023H13.6825V20.3377H11.9637V11.5023ZM17.8914 14.8919C16.8633 14.5064 16.558 14.2493 16.558 13.7835C16.558 13.2212 17.1042 12.8035 17.8432 12.8035C18.3572 12.8035 18.791 13.0124 19.2247 13.5264L20.1243 12.3537C19.3854 11.7112 18.5018 11.3738 17.5219 11.3738C15.9637 11.3738 14.7588 12.4662 14.7588 13.912C14.7588 15.1329 15.3211 15.7594 16.9275 16.3377C17.6022 16.5786 17.9396 16.7393 18.1163 16.8357C18.4536 17.0606 18.6303 17.3819 18.6303 17.7513C18.6303 18.4742 18.0681 19.0043 17.297 19.0043C16.4777 19.0043 15.8191 18.5867 15.4175 17.8317L14.309 18.908C15.0962 20.0807 16.0601 20.5947 17.3613 20.5947C19.1444 20.5947 20.4135 19.406 20.4135 17.6871C20.4456 16.2574 19.8512 15.6148 17.8914 14.8919ZM20.9757 15.9361C20.9757 18.5385 23.0159 20.5465 25.6343 20.5465C26.3733 20.5465 27.0159 20.4019 27.787 20.0325V18.0084C27.0962 18.6991 26.4858 18.9722 25.7147 18.9722C23.9797 18.9722 22.7428 17.7192 22.7428 15.92C22.7428 14.2172 24.0119 12.8839 25.6343 12.8839C26.4536 12.8839 27.0801 13.173 27.787 13.8799V11.8558C27.0319 11.4702 26.4054 11.3096 25.6665 11.3096C23.0801 11.3096 20.9757 13.3658 20.9757 15.9361ZM41.4737 17.4461L39.1123 11.5023H37.2327L40.9757 20.5626H41.9074L45.7147 11.5023H43.8512L41.4737 17.4461ZM46.5018 20.3377H51.3853V18.8437H48.2207V16.4662H51.2729V14.9722H48.2207V13.0124H51.3853V11.5023H46.5018V20.3377ZM58.2126 14.1208C58.2126 12.4662 57.0721 11.5184 55.0801 11.5184H52.5259V20.3537H54.2448V16.8035H54.4697L56.8472 20.3537H58.9677L56.1885 16.6268C57.4898 16.3537 58.2126 15.4702 58.2126 14.1208ZM54.7428 15.5827H54.2448V12.8999H54.7749C55.8512 12.8999 56.4295 13.3497 56.4295 14.2172C56.4295 15.1007 55.8512 15.5827 54.7428 15.5827Z" fill="#231F20"/>
<path d="M33.0717 20.6586C34.3205 20.6586 35.5181 20.1625 36.4011 19.2795C37.2841 18.3965 37.7801 17.1989 37.7801 15.9501C37.7801 14.7014 37.2841 13.5038 36.4011 12.6208C35.5181 11.7378 34.3205 11.2417 33.0717 11.2417C31.823 11.2417 30.6253 11.7378 29.7423 12.6208C28.8593 13.5038 28.3633 14.7014 28.3633 15.9501C28.3633 17.1989 28.8593 18.3965 29.7423 19.2795C30.6253 20.1625 31.823 20.6586 33.0717 20.6586Z" fill="url(#paint0_linear_233_1393)"/>
<path opacity="0.65" d="M33.0717 20.6586C34.3205 20.6586 35.5181 20.1625 36.4011 19.2795C37.2841 18.3965 37.7801 17.1989 37.7801 15.9501C37.7801 14.7014 37.2841 13.5038 36.4011 12.6208C35.5181 11.7378 34.3205 11.2417 33.0717 11.2417C31.823 11.2417 30.6253 11.7378 29.7423 12.6208C28.8593 13.5038 28.3633 14.7014 28.3633 15.9501C28.3633 17.1989 28.8593 18.3965 29.7423 19.2795C30.6253 20.1625 31.823 20.6586 33.0717 20.6586Z" fill="url(#paint1_linear_233_1393)"/>
<path d="M59.4349 12.0579C59.4349 11.8972 59.3224 11.8169 59.1457 11.8169H58.8887V12.588H59.0814V12.2828L59.3063 12.588H59.5312L59.2742 12.2667C59.3706 12.2506 59.4349 12.1703 59.4349 12.0579ZM59.1136 12.1703H59.0814V11.9615H59.1136C59.21 11.9615 59.2581 11.9936 59.2581 12.0579C59.2581 12.1382 59.21 12.1703 59.1136 12.1703Z" fill="#231F20"/>
<path d="M59.1776 11.5273C58.8081 11.5273 58.5029 11.8326 58.5029 12.202C58.5029 12.5715 58.8081 12.8767 59.1776 12.8767C59.5471 12.8767 59.8523 12.5715 59.8523 12.202C59.8523 11.8326 59.5471 11.5273 59.1776 11.5273ZM59.1776 12.7643C58.8885 12.7643 58.6314 12.5233 58.6314 12.202C58.6314 11.8968 58.8724 11.6398 59.1776 11.6398C59.4668 11.6398 59.7077 11.8968 59.7077 12.202C59.7077 12.5073 59.4668 12.7643 59.1776 12.7643Z" fill="#231F20"/>
<path d="M60.1229 20.8574C60.1229 20.8574 44.2033 31.9241 15.1045 36.9474H56.9085C57.7562 36.9474 58.5695 36.6124 59.1713 36.0155C59.7731 35.4185 60.1146 34.6079 60.1213 33.7602L60.1599 28.9088L60.1229 20.859V20.8574Z" fill="#F48120"/>
</g>
<defs>
<linearGradient id="paint0_linear_233_1393" x1="35.4765" y1="19.7188" x2="32.2235" y2="14.6248" gradientUnits="userSpaceOnUse">
<stop stop-color="#F89F20"/>
<stop offset="0.25" stop-color="#F79A20"/>
<stop offset="0.533" stop-color="#F68D20"/>
<stop offset="0.62" stop-color="#F58720"/>
<stop offset="0.723" stop-color="#F48120"/>
<stop offset="1" stop-color="#F37521"/>
</linearGradient>
<linearGradient id="paint1_linear_233_1393" x1="34.9641" y1="19.6497" x2="30.2091" y2="10.355" gradientUnits="userSpaceOnUse">
<stop stop-color="#F58720"/>
<stop offset="0.359" stop-color="#E16F27"/>
<stop offset="0.703" stop-color="#D4602C"/>
<stop offset="0.982" stop-color="#D05B2E"/>
</linearGradient>
<clipPath id="clip0_233_1393">
<rect width="61.0442" height="38.5542" fill="white" transform="translate(0.686523)"/>
</clipPath>
</defs>
</svg>
