<svg width="62" height="39" viewBox="0 0 62 39" fill="none" xmlns="http://www.w3.org/2000/svg">
<g clip-path="url(#clip0_233_1402)">
<path opacity="0.07" d="M56.8069 0H5.40131C2.67038 0 0.582031 2.08835 0.582031 4.81927V33.7349C0.582031 36.4658 2.83103 38.5542 5.40131 38.5542H56.8069C59.5378 38.5542 61.6262 36.4658 61.6262 33.7349V4.81927C61.6262 2.08835 59.3772 0 56.8069 0Z" fill="black"/>
<path d="M56.8069 1.60645C58.574 1.60645 60.0198 3.05223 60.0198 4.8193V33.7349C60.0198 35.502 58.574 36.9478 56.8069 36.9478H5.40133C3.63426 36.9478 2.18848 35.502 2.18848 33.7349V4.8193C2.18848 3.05223 3.63426 1.60645 5.40133 1.60645H56.8069Z" fill="white"/>
<path fill-rule="evenodd" clip-rule="evenodd" d="M13.8989 9.11133H13.9551V10.5153H13.8989C10.2748 10.5153 7.20815 12.8607 6.18807 16.0929L4.82422 15.6671C6.02904 11.868 9.63546 9.11133 13.8989 9.11133Z" fill="url(#paint0_linear_233_1402)"/>
<path fill-rule="evenodd" clip-rule="evenodd" d="M13.9556 10.5153V9.11133H13.8994C18.1757 9.11133 21.7934 11.8872 22.9854 15.7057L21.6231 16.133C20.6207 12.8977 17.5701 10.5394 13.9556 10.5153Z" fill="url(#paint1_linear_233_1402)"/>
<path fill-rule="evenodd" clip-rule="evenodd" d="M18.6444 24.8643L19.4846 26.0016C17.8551 27.164 15.9023 27.7865 13.9007 27.7815C11.93 27.7867 10.0058 27.1836 8.39062 26.0546L9.23239 24.9173C10.5497 25.8378 12.1609 26.3791 13.9007 26.3791C15.6742 26.3791 17.3127 25.8169 18.6444 24.8643Z" fill="url(#paint2_linear_233_1402)"/>
<path fill-rule="evenodd" clip-rule="evenodd" d="M4.82644 15.667L6.18869 16.0927C5.94849 16.854 5.82659 17.6478 5.82724 18.4461C5.82724 21.1176 7.17021 23.4806 9.23126 24.9168L8.3911 26.0541C6.05696 24.4204 4.50837 21.7762 4.40234 18.7738V18.12C4.43287 17.2686 4.57905 16.4461 4.82644 15.667Z" fill="url(#paint3_linear_233_1402)"/>
<path fill-rule="evenodd" clip-rule="evenodd" d="M23.4014 18.4466C23.4014 21.5534 21.8593 24.3036 19.4818 26.0016L18.6416 24.8658C19.6689 24.1395 20.5074 23.1777 21.0868 22.0609C21.6661 20.9441 21.9696 19.7047 21.9717 18.4466C21.9717 17.6401 21.8496 16.861 21.6215 16.1285L22.9838 15.7012C23.2569 16.5686 23.4014 17.4907 23.4014 18.4482V18.4466Z" fill="url(#paint4_linear_233_1402)"/>
<path fill-rule="evenodd" clip-rule="evenodd" d="M18.3493 19.6277C18.3493 19.1329 18.0039 18.9112 17.2377 18.9112H15.3501V20.3409H17.2377C18.0168 20.3409 18.3493 20.1273 18.3493 19.6277ZM16.9726 16.6301H15.3501V18.0598H16.9726C17.7067 18.0598 18.0393 17.8381 18.0393 17.3482C18.0393 16.8566 17.7019 16.6301 16.9726 16.6301ZM19.3405 19.7177C19.3405 20.6719 18.579 21.2148 17.236 21.2148H14.4617C14.4136 21.2148 14.3814 21.1827 14.3814 21.1361V15.8349C14.3814 15.7883 14.4136 15.7578 14.4617 15.7578H16.9919C18.2979 15.7578 19.016 16.2606 19.016 17.1683C19.016 17.7064 18.775 18.1385 18.0794 18.3458C18.9597 18.5289 19.3164 19.0478 19.3405 19.7177ZM13.228 15.8349V16.5755C13.228 16.6237 13.1959 16.6542 13.1477 16.6542H9.93484V18.0373H12.6015C12.6497 18.0373 12.6802 18.0695 12.6802 18.116V18.855C12.6802 18.9032 12.6481 18.9353 12.5999 18.9353H9.93645V21.1361C9.93645 21.1843 9.90432 21.2148 9.85613 21.2148H9.0481C8.9999 21.2148 8.96777 21.1827 8.96777 21.1361V15.8349C8.96777 15.7883 8.9999 15.7578 9.0481 15.7578H13.1493C13.1975 15.7578 13.2296 15.7899 13.2296 15.8349H13.228Z" fill="#64717D"/>
<path fill-rule="evenodd" clip-rule="evenodd" d="M50.726 15.775C51.514 18.2023 52.4189 20.5901 53.4376 22.93L55.9276 15.775H57.9179L54.3501 25.0184C53.8938 26.2023 53.3525 27.1147 52.726 27.7573C52.0994 28.3999 51.2593 28.7212 50.2071 28.7212C49.9452 28.7212 49.6978 28.7003 49.4681 28.6585V27.0441C49.6609 27.0746 49.8328 27.089 49.9774 27.089C50.6167 27.089 51.1372 26.9123 51.5388 26.5557C51.9404 26.2007 52.2938 25.6786 52.5974 24.9911C51.8438 23.5031 51.1409 21.9901 50.4898 20.4545C49.833 18.907 49.2064 17.3469 48.6103 15.775H50.726ZM43.3364 15.5597C44.4545 15.5597 45.3541 15.8762 46.0352 16.5091C46.7179 17.1437 47.0585 18.0915 47.0585 19.3525V24.7388H45.3075V23.277C44.9541 23.8039 44.4995 24.2087 43.9468 24.4931C43.3604 24.7844 42.7124 24.9304 42.0577 24.9188C41.0954 24.9188 40.3485 24.6746 39.8167 24.1878C39.285 23.7011 39.0183 23.0585 39.0183 22.265C39.0183 21.4762 39.3187 20.8144 39.9179 20.2826C40.5171 19.7525 41.4729 19.4842 42.787 19.4842H45.2689V19.4585C45.2689 17.9517 44.5637 17.1983 43.1533 17.1983C42.5621 17.1983 42.0657 17.3027 41.6593 17.5131C41.2561 17.722 40.9284 18.0144 40.6794 18.3919L39.4296 17.3959C39.8183 16.8047 40.3308 16.3501 40.9669 16.0336C41.6427 15.7077 42.3855 15.5448 43.1356 15.5581H43.3348L43.3364 15.5597ZM32.9685 12.1895C34.5685 12.1895 35.7637 12.5638 36.5541 13.314C37.3444 14.0642 37.7412 15.081 37.7412 16.3662C37.7412 17.6465 37.3444 18.6633 36.5541 19.4152C35.7637 20.1686 34.5685 20.5445 32.9685 20.5445H29.5372V24.7405H27.6191V12.1895H32.9669H32.9685ZM45.2689 20.8947H42.8593C42.1428 20.8947 41.6304 21.0071 41.3219 21.232C41.1757 21.3333 41.0571 21.4696 40.9769 21.6283C40.8966 21.7871 40.8573 21.9634 40.8625 22.1413C40.8625 22.9284 41.3926 23.3236 42.4593 23.3236C43.1645 23.3236 43.7509 23.1678 44.2199 22.8529C44.689 22.5396 45.0392 22.1139 45.2689 21.5758V20.8947ZM32.787 13.9453H29.5372V18.787H32.7854C33.8264 18.787 34.5846 18.5862 35.0633 18.1814C35.5404 17.7798 35.7782 17.1742 35.7782 16.3662C35.7782 15.5597 35.5404 14.9541 35.0633 14.5509C34.5846 14.1477 33.8264 13.9453 32.7854 13.9453H32.787Z" fill="#1B2529"/>
</g>
<defs>
<linearGradient id="paint0_linear_233_1402" x1="13.9551" y1="10.9282" x2="6.73105" y2="16.2583" gradientUnits="userSpaceOnUse">
<stop stop-color="#24D365"/>
<stop offset="1" stop-color="#139DBD"/>
</linearGradient>
<linearGradient id="paint1_linear_233_1402" x1="13.8994" y1="10.8816" x2="21.1444" y2="16.2422" gradientUnits="userSpaceOnUse">
<stop stop-color="#23D068"/>
<stop offset="0.52" stop-color="#EACD36"/>
<stop offset="1" stop-color="#FF6C5C"/>
</linearGradient>
<linearGradient id="paint2_linear_233_1402" x1="8.8099" y1="25.5036" x2="19.0509" y2="25.5036" gradientUnits="userSpaceOnUse">
<stop stop-color="#266FF3"/>
<stop offset="1" stop-color="#C439D6"/>
</linearGradient>
<linearGradient id="paint3_linear_233_1402" x1="7.22483" y1="25.532" x2="4.24652" y2="16.6903" gradientUnits="userSpaceOnUse">
<stop stop-color="#266FF3"/>
<stop offset="1" stop-color="#149FBA"/>
</linearGradient>
<linearGradient id="paint4_linear_233_1402" x1="21.3034" y1="15.9245" x2="18.3187" y2="24.7293" gradientUnits="userSpaceOnUse">
<stop stop-color="#FF6C5C"/>
<stop offset="1" stop-color="#C439D6"/>
</linearGradient>
<clipPath id="clip0_233_1402">
<rect width="61.0442" height="38.5542" fill="white" transform="translate(0.582031)"/>
</clipPath>
</defs>
</svg>
