<svg width="62" height="39" viewBox="0 0 62 39" fill="none" xmlns="http://www.w3.org/2000/svg">
<g clip-path="url(#clip0_233_1412)">
<path opacity="0.07" d="M56.7024 0H5.29681C2.56589 0 0.477539 2.08835 0.477539 4.81927V33.7349C0.477539 36.4658 2.72653 38.5542 5.29681 38.5542H56.7024C59.4333 38.5542 61.5217 36.4658 61.5217 33.7349V4.81927C61.5217 2.08835 59.2727 0 56.7024 0Z" fill="black"/>
<path d="M56.7024 1.60645C58.4695 1.60645 59.9153 3.05223 59.9153 4.8193V33.7349C59.9153 35.502 58.4695 36.9478 56.7024 36.9478H5.29683C3.52977 36.9478 2.08398 35.502 2.08398 33.7349V4.8193C2.08398 3.05223 3.52977 1.60645 5.29683 1.60645H56.7024Z" fill="white"/>
<path d="M29.5426 19.2387V24.3793H27.9072V11.6886H32.2301C32.7481 11.6798 33.2627 11.7735 33.7443 11.9643C34.2259 12.155 34.6651 12.4391 35.0365 12.8002C35.3884 13.1285 35.6721 13.523 35.8714 13.9611C36.0708 14.3991 36.1818 14.8721 36.1982 15.3531C36.2146 15.8341 36.1361 16.3136 35.9671 16.7642C35.7981 17.2149 35.5419 17.6277 35.2132 17.9793L35.0365 18.1657C34.2815 18.8837 33.2727 19.2741 32.2301 19.2484L29.5426 19.2387ZM29.5426 13.2436V17.7223H32.2703C32.8759 17.7416 33.4606 17.5054 33.8847 17.0733C34.1881 16.7571 34.3918 16.3587 34.4705 15.9276C34.5492 15.4966 34.4994 15.0519 34.3274 14.6489C34.1553 14.2459 33.8686 13.9024 33.5028 13.6611C33.1371 13.4198 32.7085 13.2914 32.2703 13.2918L29.5426 13.2436ZM39.9586 15.409C41.0028 15.3608 42.0245 15.711 42.8148 16.3938C43.5297 17.0845 43.9104 18.0484 43.859 19.0428V24.3986H42.3024V23.1681H42.2237C41.9445 23.6296 41.5498 24.0103 41.0784 24.2726C40.6071 24.5349 40.0755 24.6697 39.5361 24.6636C38.6557 24.6922 37.797 24.3862 37.1329 23.8074C36.8183 23.5508 36.5661 23.2259 36.3955 22.8574C36.2249 22.4889 36.1403 22.0865 36.1482 21.6805C36.1296 21.2702 36.2093 20.8614 36.3806 20.4881C36.5519 20.1149 36.8098 19.7879 37.1329 19.5343C37.9256 18.9643 38.8849 18.6733 39.8606 18.707C40.6912 18.6749 41.5153 18.8564 42.2542 19.2387V18.9046C42.2596 18.6283 42.2021 18.3545 42.0861 18.1037C41.97 17.853 41.7984 17.6319 41.5843 17.4572C41.1543 17.0663 40.591 16.8548 40.01 16.8661C39.5881 16.8621 39.172 16.9658 38.8013 17.1673C38.4305 17.3688 38.1173 17.6616 37.8912 18.0179L36.4534 17.1118C36.8438 16.5525 37.3709 16.1024 37.9844 15.8043C38.598 15.5062 39.2776 15.3702 39.9586 15.409ZM37.8912 21.7191C37.8873 21.9271 37.9346 22.1329 38.029 22.3184C38.1235 22.5038 38.262 22.6632 38.4325 22.7825C38.7908 23.0653 39.2357 23.2147 39.6936 23.205C40.3827 23.2034 41.043 22.9319 41.5345 22.4468C42.0245 21.9873 42.3024 21.3464 42.3024 20.6749C41.684 20.2352 40.9325 20.023 40.1755 20.0741C39.5877 20.0509 39.0079 20.2164 38.5209 20.5464C38.328 20.6754 38.1697 20.8498 38.0599 21.0543C37.9501 21.2587 37.8922 21.487 37.8912 21.7191ZM52.8084 15.695L47.3626 28.209H45.6791L47.7369 23.8267L44.1642 15.695H45.9361L48.5257 21.9359L51.0462 15.695H52.8084Z" fill="#5F6368"/>
<path d="M22.9454 18.1263C22.9454 17.6316 22.9068 17.1368 22.8281 16.6484H15.9365V19.4549H19.8739C19.7937 19.9009 19.6243 20.3261 19.3759 20.7051C19.1275 21.0841 18.8051 21.4091 18.4281 21.6605V23.4822H20.7799C21.495 22.7903 22.0571 21.9562 22.4301 21.0337C22.8031 20.1112 22.9786 19.1208 22.9454 18.1263Z" fill="#4285F4"/>
<path d="M15.9467 25.2545C17.724 25.3033 19.453 24.6731 20.7821 23.4922L18.4271 21.6609C17.8612 22.0237 17.2201 22.2527 16.5524 22.3305C15.8847 22.4083 15.2081 22.3327 14.574 22.1097C13.9399 21.8867 13.365 21.522 12.8931 21.0434C12.4211 20.5648 12.0645 19.9848 11.8504 19.3477H9.4375V21.2272C10.0413 22.4369 10.9701 23.4544 12.1198 24.1658C13.2696 24.8771 14.5947 25.2541 15.9467 25.2545Z" fill="#34A853"/>
<path d="M11.8486 19.3576C11.5431 18.4537 11.5431 17.4744 11.8486 16.5704V14.6909H9.43579C8.92139 15.7053 8.65332 16.8266 8.65332 17.964C8.65332 19.1014 8.92139 20.2227 9.43579 21.2371L11.8486 19.3576Z" fill="#FBBC04"/>
<path d="M15.9467 13.5585C16.9861 13.5395 17.9908 13.9322 18.7419 14.6509L20.8303 12.5738C19.4987 11.324 17.7325 10.6423 15.9066 10.6734C14.5626 10.6801 13.2467 11.0589 12.1049 11.7678C10.963 12.4767 10.0398 13.4879 9.4375 14.6894L11.8504 16.5706C12.1325 15.7032 12.6794 14.9462 13.4142 14.4059C14.149 13.8656 15.0347 13.5692 15.9467 13.5585Z" fill="#EA4335"/>
</g>
<defs>
<clipPath id="clip0_233_1412">
<rect width="61.0442" height="38.5542" fill="white" transform="translate(0.477539)"/>
</clipPath>
</defs>
</svg>
