<svg width="62" height="39" viewBox="0 0 62 39" fill="none" xmlns="http://www.w3.org/2000/svg">
<g clip-path="url(#clip0_233_1420)">
<path opacity="0.07" d="M56.5979 0H5.19232C2.4614 0 0.373047 2.08835 0.373047 4.81927V33.7349C0.373047 36.4658 2.62204 38.5542 5.19232 38.5542H56.5979C59.3288 38.5542 61.4172 36.4658 61.4172 33.7349V4.81927C61.4172 2.08835 59.1682 0 56.5979 0Z" fill="black"/>
<path d="M56.5989 1.60645C58.366 1.60645 59.8118 3.05223 59.8118 4.8193V33.7349C59.8118 35.502 58.366 36.9478 56.5989 36.9478H5.19332C3.42625 36.9478 1.98047 35.502 1.98047 33.7349V4.8193C1.98047 3.05223 3.42625 1.60645 5.19332 1.60645H56.5989Z" fill="white"/>
<path d="M24.4696 30.5222C30.68 30.5222 35.7146 25.4876 35.7146 19.2772C35.7146 13.0668 30.68 8.03223 24.4696 8.03223C18.2592 8.03223 13.2246 13.0668 13.2246 19.2772C13.2246 25.4876 18.2592 30.5222 24.4696 30.5222Z" fill="#EB001B"/>
<path d="M37.3211 30.5222C43.5316 30.5222 48.5661 25.4876 48.5661 19.2772C48.5661 13.0668 43.5316 8.03223 37.3211 8.03223C31.1107 8.03223 26.0762 13.0668 26.0762 19.2772C26.0762 25.4876 31.1107 30.5222 37.3211 30.5222Z" fill="#F79E1B"/>
<path d="M35.7147 19.2772C35.7147 15.4218 33.787 12.0483 30.8954 10.1206C28.0039 12.209 26.0762 15.5824 26.0762 19.2772C26.0762 22.972 28.0039 26.5061 30.8954 28.4339C33.787 26.5061 35.7147 23.1326 35.7147 19.2772Z" fill="#FF5F00"/>
</g>
<defs>
<clipPath id="clip0_233_1420">
<rect width="61.0442" height="38.5542" fill="white" transform="translate(0.373047)"/>
</clipPath>
</defs>
</svg>
