<svg width="62" height="39" viewBox="0 0 62 39" fill="none" xmlns="http://www.w3.org/2000/svg">
<g clip-path="url(#clip0_233_1426)">
<path opacity="0.07" d="M56.4944 0H5.08881C2.35788 0 0.269531 2.08835 0.269531 4.81927V33.7349C0.269531 36.4658 2.51853 38.5542 5.08881 38.5542H56.4944C59.2253 38.5542 61.3137 36.4658 61.3137 33.7349V4.81927C61.3137 2.08835 59.0647 0 56.4944 0Z" fill="black"/>
<path d="M56.4935 1.60645C58.2605 1.60645 59.7063 3.05223 59.7063 4.8193V33.7349C59.7063 35.502 58.2605 36.9478 56.4935 36.9478H5.08785C3.32078 36.9478 1.875 35.502 1.875 33.7349V4.8193C1.875 3.05223 3.32078 1.60645 5.08785 1.60645H56.4935Z" fill="white"/>
<path d="M38.6624 13.3334C38.9837 11.727 38.6624 10.6025 37.6985 9.63865C36.7347 8.51415 34.9676 8.03223 32.7186 8.03223H26.1323C25.6504 8.03223 25.3291 8.35351 25.1684 8.83544L22.7588 25.0603C22.7588 25.3816 22.9194 25.7029 23.2407 25.7029H27.5781L28.2206 20.2411L31.1122 16.7069L38.6624 13.3334Z" fill="#003087"/>
<path d="M38.6615 13.333L38.3402 13.6543C37.537 18.1523 34.8061 19.7587 30.9506 19.7587H29.1836C28.7016 19.7587 28.3804 20.08 28.2197 20.5619L27.2559 26.827L26.9346 28.4334C26.9346 28.7547 27.0952 29.076 27.4165 29.076H30.79C31.2719 29.076 31.5932 28.7547 31.5932 28.4334V28.2728L32.2358 24.4173V24.2567C32.2358 23.9354 32.7177 23.6141 33.039 23.6141H33.5209C36.8944 23.6141 39.4647 22.329 40.1073 18.4736C40.4285 16.8671 40.2679 15.582 39.4647 14.6181C39.304 13.8149 38.9828 13.4937 38.6615 13.333Z" fill="#3086C8"/>
<path d="M37.6996 13.0117C37.5389 12.8511 37.3783 12.8511 37.2177 12.8511C37.057 12.8511 36.8964 12.8511 36.7357 12.6904C36.2538 12.5298 35.6112 12.5298 34.9687 12.5298H30.1494C29.9887 12.5298 29.8281 12.5298 29.8281 12.6904C29.5068 12.8511 29.3462 13.0117 29.3462 13.333L28.2217 20.4013V20.5619C28.2217 20.08 28.7036 19.7587 29.1855 19.7587H31.2739C35.2899 19.7587 37.8602 18.1523 38.6634 13.6543V13.333C38.5028 13.1724 38.1815 13.0117 37.8602 13.0117H37.6996Z" fill="#012169"/>
</g>
<defs>
<clipPath id="clip0_233_1426">
<rect width="61.0442" height="38.5542" fill="white" transform="translate(0.269531)"/>
</clipPath>
</defs>
</svg>
