<svg width="62" height="39" viewBox="0 0 62 39" fill="none" xmlns="http://www.w3.org/2000/svg">
<g clip-path="url(#clip0_233_1432)">
<path opacity="0.07" d="M56.3889 0H4.98334C2.25241 0 0.164062 2.08835 0.164062 4.81927V33.7349C0.164062 36.4658 2.41306 38.5542 4.98334 38.5542H56.3889C59.1199 38.5542 61.2082 36.4658 61.2082 33.7349V4.81927C61.2082 2.08835 58.9592 0 56.3889 0Z" fill="black"/>
<path d="M56.389 1.60645C58.156 1.60645 59.6018 3.05223 59.6018 4.8193V33.7349C59.6018 35.502 58.156 36.9478 56.389 36.9478H4.98336C3.21629 36.9478 1.77051 35.502 1.77051 33.7349V4.8193C1.77051 3.05223 3.21629 1.60645 4.98336 1.60645H56.389Z" fill="#5A31F4"/>
<path d="M34.5129 15.6036C34.5129 18.2831 32.6222 20.1947 29.9812 20.1947H27.4929C27.4518 20.1954 27.4117 20.2078 27.3776 20.2306C27.3434 20.2534 27.3165 20.2856 27.3001 20.3233C27.2896 20.3482 27.2841 20.3749 27.284 20.402V23.9233C27.284 23.9506 27.2786 23.9777 27.2681 24.0029C27.2576 24.0282 27.2422 24.0511 27.2228 24.0704C27.2034 24.0896 27.1803 24.1048 27.155 24.1152C27.1297 24.1255 27.1026 24.1307 27.0752 24.1305H25.3338C25.2785 24.1305 25.2253 24.1085 25.1862 24.0693C25.147 24.0301 25.125 23.977 25.125 23.9216V11.2229C25.1243 11.1815 25.1363 11.1409 25.1592 11.1065C25.1822 11.072 25.2151 11.0454 25.2535 11.0301C25.279 11.0194 25.3063 11.014 25.3338 11.014H29.9925C32.6222 11.014 34.5129 12.9257 34.5129 15.6052V15.6036ZM32.3411 15.6036C32.3411 14.0646 31.284 12.9401 29.8511 12.9401H27.4929C27.4654 12.9401 27.4383 12.9455 27.413 12.956C27.3876 12.9665 27.3646 12.9819 27.3452 13.0013C27.3258 13.0207 27.3104 13.0437 27.2999 13.069C27.2894 13.0944 27.284 13.1215 27.284 13.149V18.0486C27.2837 18.076 27.289 18.1033 27.2995 18.1287C27.31 18.1541 27.3255 18.1771 27.3451 18.1963C27.3644 18.2158 27.3875 18.2312 27.4128 18.2417C27.4382 18.2522 27.4654 18.2575 27.4929 18.2574H29.8511C31.284 18.2654 32.3411 17.1409 32.3411 15.6036ZM35.0302 21.6935C35.0119 21.282 35.0975 20.8724 35.2791 20.5027C35.4608 20.1329 35.7326 19.8149 36.0696 19.5779C36.7491 19.0702 37.8109 18.8068 39.3708 18.7522L41.0302 18.6943V18.2076C41.0302 17.2325 40.3716 16.8212 39.3146 16.8212C38.2575 16.8212 37.5876 17.1923 37.435 17.8012C37.422 17.8439 37.3953 17.8812 37.3591 17.9074C37.3228 17.9335 37.2789 17.947 37.2342 17.9457H35.5925C35.5473 17.9463 35.5031 17.9322 35.4666 17.9056C35.4301 17.8789 35.4033 17.8412 35.3901 17.798C35.3814 17.7693 35.3792 17.7392 35.3836 17.7096C35.6278 16.267 36.8358 15.1714 39.3901 15.1714C42.1081 15.1714 43.0897 16.4293 43.0897 18.8277V23.9233C43.0894 23.9508 43.0838 23.9781 43.073 24.0034C43.0622 24.0288 43.0465 24.0518 43.0268 24.071C43.0071 24.0903 42.9837 24.1055 42.9581 24.1157C42.9325 24.1259 42.9052 24.1309 42.8776 24.1305H41.223C41.1676 24.1305 41.1145 24.1085 41.0753 24.0693C41.0362 24.0301 41.0142 23.977 41.0142 23.9216V23.5425C41.0147 23.5111 41.0056 23.4802 40.9881 23.4541C40.9705 23.428 40.9455 23.4078 40.9162 23.3963C40.8872 23.3849 40.8555 23.3822 40.825 23.3885C40.7944 23.3947 40.7664 23.4098 40.7443 23.4317C40.2463 23.9682 39.4463 24.3554 38.1627 24.3554C36.2752 24.3554 35.0302 23.3803 35.0302 21.6935ZM41.0302 20.5899V20.1947L38.8792 20.3072C37.7467 20.365 37.088 20.8309 37.088 21.618C37.088 22.3313 37.6921 22.7265 38.7491 22.7265C40.1836 22.7265 41.0302 21.9554 41.0302 20.5899ZM44.7507 27.9795V26.5032C44.7511 26.4722 44.7584 26.4418 44.772 26.414C44.7856 26.3862 44.8052 26.3618 44.8294 26.3425C44.8534 26.3231 44.8814 26.3092 44.9114 26.3017C44.9413 26.2942 44.9726 26.2933 45.0029 26.2992C45.2567 26.3457 45.5137 26.3698 45.7724 26.3698C46.2154 26.3941 46.6536 26.2685 47.0165 26.0132C47.3793 25.7579 47.6456 25.3878 47.7724 24.9626L47.88 24.6237C47.896 24.5779 47.896 24.528 47.88 24.4823L44.4342 15.6935C44.4143 15.6453 44.4131 15.5913 44.4309 15.5423C44.4488 15.4932 44.4843 15.4526 44.5306 15.4285C44.5613 15.4123 44.5955 15.404 44.6302 15.4044H46.3009C46.3438 15.4045 46.3856 15.4176 46.4209 15.442C46.4562 15.4664 46.4832 15.5009 46.4985 15.5409L48.8374 21.7401C48.8519 21.7817 48.8791 21.8178 48.9151 21.8431C48.9511 21.8685 48.9942 21.8819 49.0382 21.8815C49.0822 21.8814 49.125 21.8678 49.161 21.8425C49.1969 21.8172 49.2242 21.7815 49.239 21.7401L51.2712 15.5586C51.2849 15.516 51.3121 15.4789 51.3485 15.4529C51.385 15.4269 51.4288 15.4132 51.4736 15.414H53.2021C53.254 15.4143 53.304 15.4333 53.3429 15.4676C53.3819 15.5018 53.4072 15.549 53.4141 15.6004C53.418 15.6346 53.4136 15.6694 53.4013 15.7016L49.7145 25.4622C48.8664 27.7321 47.4125 28.3104 45.8109 28.3104C45.507 28.3188 45.2034 28.2831 44.9097 28.2044C44.8605 28.1923 44.8172 28.163 44.7877 28.1217C44.7583 28.0804 44.7446 28.03 44.7491 27.9795H44.7507ZM13.9314 10.2815C11.7395 10.2651 9.62368 11.0849 8.01497 12.5739C7.94651 12.6361 7.90379 12.7217 7.89517 12.8138C7.88655 12.906 7.91266 12.998 7.96838 13.0719L8.96115 14.4196C8.99332 14.4651 9.0351 14.5029 9.08353 14.5304C9.13196 14.5578 9.18585 14.5743 9.24136 14.5786C9.29687 14.5829 9.35265 14.5749 9.40473 14.5552C9.4568 14.5355 9.5039 14.5046 9.54268 14.4646C10.1209 13.8905 10.8075 13.4371 11.5627 13.131C12.3178 12.8249 13.1263 12.6721 13.9411 12.6815C17.3467 12.6815 19.125 15.2261 19.125 17.7417C19.125 20.4726 17.2567 22.3971 14.5708 22.4341C12.4953 22.4341 10.9306 21.0686 10.9306 19.263C10.9324 18.8064 11.0362 18.356 11.2343 17.9447C11.4325 17.5333 11.7201 17.1715 12.076 16.8855C12.1518 16.8233 12.1999 16.7337 12.2098 16.6362C12.2198 16.5387 12.1907 16.4412 12.129 16.365L11.0848 15.0558C11.0533 15.0155 11.014 14.9821 10.9692 14.9574C10.9244 14.9328 10.8751 14.9174 10.8242 14.9123C10.7733 14.9072 10.722 14.9125 10.6732 14.9277C10.6244 14.943 10.5792 14.968 10.5403 15.0012C9.90075 15.5142 9.38377 16.1634 9.02702 16.9016C8.67154 17.6381 8.4865 18.4452 8.48565 19.263C8.48565 22.3714 11.1443 24.8084 14.5499 24.8277H14.5981C18.6415 24.7763 21.5652 21.8012 21.5652 17.7353C21.5652 14.1257 18.8873 10.2815 13.9314 10.2815Z" fill="white"/>
</g>
<defs>
<clipPath id="clip0_233_1432">
<rect width="61.0442" height="38.5542" fill="white" transform="translate(0.164062)"/>
</clipPath>
</defs>
</svg>
