<svg width="38" height="38" viewBox="0 0 38 38" fill="none" xmlns="http://www.w3.org/2000/svg">
<circle opacity="0.5" cx="19" cy="19" r="19" fill="#D9D9D9"/>
<g clip-path="url(#clip0_233_1349)">
<path d="M19 9C21.717 9 22.056 9.01 23.122 9.06C24.187 9.11 24.912 9.277 25.55 9.525C26.21 9.779 26.766 10.123 27.322 10.678C27.8305 11.1779 28.224 11.7826 28.475 12.45C28.722 13.087 28.89 13.813 28.94 14.878C28.987 15.944 29 16.283 29 19C29 21.717 28.99 22.056 28.94 23.122C28.89 24.187 28.722 24.912 28.475 25.55C28.2247 26.2178 27.8311 26.8226 27.322 27.322C26.822 27.8303 26.2173 28.2238 25.55 28.475C24.913 28.722 24.187 28.89 23.122 28.94C22.056 28.987 21.717 29 19 29C16.283 29 15.944 28.99 14.878 28.94C13.813 28.89 13.088 28.722 12.45 28.475C11.7823 28.2245 11.1775 27.8309 10.678 27.322C10.1694 26.8222 9.77593 26.2175 9.525 25.55C9.277 24.913 9.11 24.187 9.06 23.122C9.013 22.056 9 21.717 9 19C9 16.283 9.01 15.944 9.06 14.878C9.11 13.812 9.277 13.088 9.525 12.45C9.77524 11.7822 10.1688 11.1773 10.678 10.678C11.1777 10.1692 11.7824 9.77573 12.45 9.525C13.088 9.277 13.812 9.11 14.878 9.06C15.944 9.013 16.283 9 19 9ZM19 14C17.6739 14 16.4021 14.5268 15.4645 15.4645C14.5268 16.4021 14 17.6739 14 19C14 20.3261 14.5268 21.5979 15.4645 22.5355C16.4021 23.4732 17.6739 24 19 24C20.3261 24 21.5979 23.4732 22.5355 22.5355C23.4732 21.5979 24 20.3261 24 19C24 17.6739 23.4732 16.4021 22.5355 15.4645C21.5979 14.5268 20.3261 14 19 14ZM25.5 13.75C25.5 13.4185 25.3683 13.1005 25.1339 12.8661C24.8995 12.6317 24.5815 12.5 24.25 12.5C23.9185 12.5 23.6005 12.6317 23.3661 12.8661C23.1317 13.1005 23 13.4185 23 13.75C23 14.0815 23.1317 14.3995 23.3661 14.6339C23.6005 14.8683 23.9185 15 24.25 15C24.5815 15 24.8995 14.8683 25.1339 14.6339C25.3683 14.3995 25.5 14.0815 25.5 13.75ZM19 16C19.7956 16 20.5587 16.3161 21.1213 16.8787C21.6839 17.4413 22 18.2044 22 19C22 19.7956 21.6839 20.5587 21.1213 21.1213C20.5587 21.6839 19.7956 22 19 22C18.2044 22 17.4413 21.6839 16.8787 21.1213C16.3161 20.5587 16 19.7956 16 19C16 18.2044 16.3161 17.4413 16.8787 16.8787C17.4413 16.3161 18.2044 16 19 16Z" fill="black"/>
</g>
<defs>
<clipPath id="clip0_233_1349">
<rect width="24" height="24" fill="white" transform="translate(7 7)"/>
</clipPath>
</defs>
</svg>
