<svg width="38" height="38" viewBox="0 0 38 38" fill="none" xmlns="http://www.w3.org/2000/svg">
<circle opacity="0.5" cx="19" cy="19" r="19" fill="#D9D9D9"/>
<g clip-path="url(#clip0_233_1355)">
<path d="M20.3701 9.09383C17.9774 8.76469 15.5463 9.31238 13.5259 10.6358C11.5055 11.9592 10.0321 13.9689 9.3779 16.2939C8.72365 18.6189 8.9327 21.102 9.96646 23.2849C11.0002 25.4677 12.7889 27.2029 15.0021 28.1698C14.9422 27.4016 14.9972 26.6288 15.1651 25.8768C15.3501 25.0378 16.4611 20.4138 16.4611 20.4138C16.2399 19.9179 16.1293 19.3798 16.1371 18.8368C16.1371 17.3518 16.9941 16.2438 18.0601 16.2438C18.2516 16.241 18.4415 16.2795 18.6168 16.3567C18.7921 16.4338 18.9487 16.5478 19.076 16.6909C19.2034 16.8339 19.2984 17.0027 19.3547 17.1858C19.4109 17.3689 19.4271 17.5619 19.4021 17.7518C19.4021 18.6518 18.8241 20.0138 18.5221 21.2918C18.4624 21.5262 18.4586 21.7713 18.511 22.0075C18.5635 22.2436 18.6706 22.4641 18.8239 22.6512C18.9771 22.8383 19.1722 22.9868 19.3933 23.0847C19.6145 23.1826 19.8555 23.2272 20.0971 23.2148C21.9951 23.2148 23.2671 20.7838 23.2671 17.9138C23.2671 15.7138 21.8101 14.0658 19.1241 14.0658C18.4815 14.0409 17.8405 14.1468 17.24 14.3771C16.6396 14.6074 16.0922 14.9574 15.6311 15.4057C15.1701 15.8541 14.805 16.3914 14.5579 16.9852C14.3109 17.579 14.1871 18.2168 14.1941 18.8598C14.1655 19.5732 14.3956 20.2728 14.8421 20.8298C14.9255 20.8921 14.9864 20.9798 15.0157 21.0798C15.0449 21.1797 15.0408 21.2864 15.0041 21.3838C14.9581 21.5678 14.8421 22.0068 14.7961 22.1678C14.7865 22.2224 14.7643 22.274 14.7311 22.3184C14.698 22.3629 14.6548 22.3989 14.6052 22.4236C14.5556 22.4483 14.5009 22.461 14.4455 22.4607C14.39 22.4604 14.3354 22.4471 14.2861 22.4218C12.9021 21.8678 12.2501 20.3448 12.2501 18.6058C12.2501 15.7588 14.6341 12.3508 19.4041 12.3508C23.2001 12.3508 25.7241 15.1278 25.7241 18.0978C25.7241 22.0068 23.5471 24.9458 20.3301 24.9458C19.8493 24.9612 19.3724 24.8551 18.9434 24.6373C18.5145 24.4195 18.1474 24.0971 17.8761 23.6998C17.8761 23.6998 17.2981 26.0158 17.1841 26.4538C16.9514 27.2105 16.608 27.9286 16.1651 28.5848C17.0881 28.8648 18.0471 29.0048 19.0111 29.0008C20.3247 29.0019 21.6256 28.7438 22.8393 28.2414C24.053 27.739 25.1556 27.0021 26.0842 26.0729C27.0127 25.1438 27.7488 24.0406 28.2504 22.8265C28.7519 21.6125 29.0091 20.3114 29.0071 18.9978C29.0059 16.5828 28.1309 14.2498 26.5437 12.4296C24.9566 10.6094 22.7644 9.4249 20.3721 9.09483L20.3701 9.09383Z" fill="black"/>
</g>
<defs>
<clipPath id="clip0_233_1355">
<rect width="24" height="24" fill="white" transform="translate(7 7)"/>
</clipPath>
</defs>
</svg>
