<svg width="32" height="32" viewBox="0 0 32 32" fill="none" xmlns="http://www.w3.org/2000/svg">
<path d="M5.71401 2.47624L6.84128 2.17563C6.70509 1.66492 6.24257 1.30957 5.71401 1.30957V2.47624ZM9.14258 23.6191L8.0208 23.2985C7.92022 23.6505 7.99072 24.0293 8.21117 24.3216C8.43162 24.6139 8.77649 24.7857 9.14258 24.7857V23.6191ZM24.5712 18.4763L24.6642 19.6392C25.0802 19.6059 25.4468 19.3529 25.6254 18.9757L24.5712 18.4763ZM29.714 7.61909L30.7684 8.11853L31.5157 6.54076L29.7721 6.45388L29.714 7.61909ZM1.14258 3.64291H5.71401V1.30957H1.14258V3.64291ZM9.16366 19.2985L8.0208 23.2985L10.2644 23.9396L11.4072 19.9396L9.16366 19.2985ZM9.14258 24.7857H25.714V22.4524H9.14258V24.7857ZM10.3785 20.782L24.6642 19.6392L24.4781 17.3133L10.1924 18.4561L10.3785 20.782ZM25.6254 18.9757L30.7684 8.11853L28.6596 7.11967L23.5168 17.9768L25.6254 18.9757ZM4.58673 2.77684L5.6534 6.77684L7.90794 6.17563L6.84128 2.17563L4.58673 2.77684ZM5.6534 6.77684L9.15816 19.9197L11.4127 19.3185L7.90794 6.17563L5.6534 6.77684ZM29.7721 6.45388L6.83874 5.31101L6.72261 7.64145L29.656 8.78432L29.7721 6.45388Z" fill="black"/>
<path d="M10.2497 27.7333C10.7559 27.7333 11.1663 28.1439 11.1663 28.65C11.1663 29.1563 10.7559 29.5667 10.2497 29.5667C9.74341 29.5667 9.33301 29.1563 9.33301 28.65C9.33301 28.1439 9.74341 27.7333 10.2497 27.7333Z" stroke="black" stroke-width="1.75" stroke-linecap="round" stroke-linejoin="round"/>
<path d="M24.9167 27.7333C25.4229 27.7333 25.8333 28.1439 25.8333 28.65C25.8333 29.1563 25.4229 29.5667 24.9167 29.5667C24.4104 29.5667 24 29.1563 24 28.65C24 28.1439 24.4104 27.7333 24.9167 27.7333Z" stroke="black" stroke-width="1.75" stroke-linecap="round" stroke-linejoin="round"/>
</svg>
