<svg width="32" height="32" viewBox="0 0 32 32" fill="none" xmlns="http://www.w3.org/2000/svg">
<g clip-path="url(#clip0_233_1166)">
<path d="M24.0417 22.156L29.7523 27.8653L27.8657 29.752L22.1563 24.0413C20.032 25.7443 17.3897 26.6705 14.667 26.6667C8.04299 26.6667 2.66699 21.2907 2.66699 14.6667C2.66699 8.04267 8.04299 2.66667 14.667 2.66667C21.291 2.66667 26.667 8.04267 26.667 14.6667C26.6709 17.3893 25.7446 20.0317 24.0417 22.156ZM21.367 21.1667C23.0591 19.4265 24.0041 17.0939 24.0003 14.6667C24.0003 9.50933 19.823 5.33333 14.667 5.33333C9.50966 5.33333 5.33366 9.50933 5.33366 14.6667C5.33366 19.8227 9.50966 24 14.667 24C17.0942 24.0038 19.4268 23.0588 21.167 21.3667L21.367 21.1667V21.1667Z" fill="#09121F"/>
</g>
<defs>
<clipPath id="clip0_233_1166">
<rect width="32" height="32" fill="white"/>
</clipPath>
</defs>
</svg>
