<svg width="32" height="32" viewBox="0 0 32 32" fill="none" xmlns="http://www.w3.org/2000/svg">
<g clip-path="url(#clip0_233_1164)">
<path d="M5.33301 29.3333C5.33301 26.5044 6.45681 23.7912 8.4572 21.7909C10.4576 19.7905 13.1707 18.6667 15.9997 18.6667C18.8286 18.6667 21.5418 19.7905 23.5421 21.7909C25.5425 23.7912 26.6663 26.5044 26.6663 29.3333H23.9997C23.9997 27.2116 23.1568 25.1768 21.6565 23.6765C20.1562 22.1762 18.1214 21.3333 15.9997 21.3333C13.8779 21.3333 11.8431 22.1762 10.3428 23.6765C8.84253 25.1768 7.99967 27.2116 7.99967 29.3333H5.33301ZM15.9997 17.3333C11.5797 17.3333 7.99967 13.7533 7.99967 9.33333C7.99967 4.91333 11.5797 1.33333 15.9997 1.33333C20.4197 1.33333 23.9997 4.91333 23.9997 9.33333C23.9997 13.7533 20.4197 17.3333 15.9997 17.3333ZM15.9997 14.6667C18.9463 14.6667 21.333 12.28 21.333 9.33333C21.333 6.38667 18.9463 4 15.9997 4C13.053 4 10.6663 6.38667 10.6663 9.33333C10.6663 12.28 13.053 14.6667 15.9997 14.6667Z" fill="#09121F"/>
</g>
<defs>
<clipPath id="clip0_233_1164">
<rect width="32" height="32" fill="white"/>
</clipPath>
</defs>
</svg>
